<svg xmlns="http://www.w3.org/2000/svg" viewBox="0 0 64 64" id="yoga"><path fill="#7B5A9E" d="M32 18.43c5.08 0 9.21-4.13 9.21-9.21C41.21 4.13 37.08 0 32 0c-5.08 0-9.21 4.13-9.21 9.21 0 5.08 4.13 9.22 9.21 9.22zM15.16 41.36h9.01c5.9-.28 6.94-3.95 7.04-4.38.07-.37.39-.63.78-.63.38 0 .7.26.78.64.01.04.9 4.08 7.09 4.37h8.96c1.1 0 1.96-.86 1.96-1.96v-7.02c.17-7.78-12.14-9.51-17.44-9.89l-.29-.02 3.02 10.15 8.41 2.48c.42.13.66.57.54.99a.814.814 0 0 1-.99.54l-8.83-2.61a.783.783 0 0 1-.53-.53l-2.73-9.15-4.08 9.35c-.09.2-.26.36-.47.44l-7.45 2.5c-.06.02-.14.04-.24.04-.34 0-.64-.22-.75-.54-.07-.2-.06-.42.04-.61s.26-.33.46-.39l7.1-2.38 4.48-10.27-.33.02c-5.32.37-17.69 2.08-17.52 9.86v7.06c.03 1.06.91 1.94 1.98 1.94zm37.68 11.77c-1.16-.95-2.58-1.47-4.18-1.53l-.12-.01c-.5 0-1.01.05-1.53.16l-8.77 2.42.61.21c2.77.95 4.46 3.05 4.42 5.48-.03 1.46-.67 2.77-1.85 3.79L41 64h7.45c3.67 0 6.65-2.78 6.65-6.2.01-1.79-.82-3.49-2.26-4.67z"></path><path fill="#7B5A9E" d="M37.64 55.69c-.88-.21-1.84-.4-2.88-.57l-.53-.09h-.01c-.05-.01-.09-.02-.16-.04l-17.73-3.42c-.27-.05-.53-.09-.84-.11-.05 0-.11-.01-.17-.02l-.02-.01h-.08c-.18-.01-.36-.02-.53-.02-1.51 0-2.85.44-3.85 1.28-1.26 1.05-1.93 2.62-1.93 4.56 0 3.73 3.03 6.76 6.76 6.76h20.29c.03 0 .67-.05 1.53-.22 2.51-.5 4.15-2.04 4.2-3.95.02-1.93-1.56-3.55-4.05-4.15zm2.2-12.74c-4.41-.2-6.61-2.08-7.68-3.61L32 39.1l-.16.24c-1.06 1.53-3.24 3.41-7.62 3.61h-3.23v3.58c0 .22-.1.44-.27.6l-3.42 2.99 17.04 4.19.18.03.06.02 12.17-4.19-3.47-3.04a.82.82 0 0 1-.27-.6v-3.58h-3.17z"></path></svg>